<svg width="1059" height="755" viewBox="0 0 1059 755" fill="none" xmlns="http://www.w3.org/2000/svg">
<g clip-path="url(#clip0_5022_3260)">
<path d="M213 459L846 226" stroke="white" stroke-width="3" stroke-linecap="round" stroke-linejoin="round"/>
<path d="M213 174V581H846" stroke="white" stroke-width="3" stroke-linecap="round" stroke-linejoin="round"/>
<path d="M594.146 656H591.026V631.184H594.146V656ZM594.866 623.696C594.866 624.432 594.642 625.024 594.194 625.472C593.746 625.888 593.202 626.096 592.562 626.096C591.922 626.096 591.378 625.888 590.93 625.472C590.482 625.024 590.258 624.432 590.258 623.696C590.258 622.96 590.482 622.384 590.93 621.968C591.378 621.52 591.922 621.296 592.562 621.296C593.202 621.296 593.746 621.52 594.194 621.968C594.642 622.384 594.866 622.96 594.866 623.696ZM602.417 632.048C603.345 631.792 604.593 631.504 606.161 631.184C607.729 630.864 609.649 630.704 611.921 630.704C613.809 630.704 615.377 630.976 616.625 631.52C617.905 632.064 618.913 632.848 619.649 633.872C620.417 634.864 620.961 636.064 621.281 637.472C621.601 638.88 621.761 640.432 621.761 642.128V656H618.641V643.136C618.641 641.376 618.513 639.888 618.257 638.672C618.033 637.456 617.633 636.464 617.057 635.696C616.513 634.928 615.777 634.384 614.849 634.064C613.953 633.712 612.817 633.536 611.441 633.536C609.969 633.536 608.689 633.616 607.601 633.776C606.545 633.936 605.857 634.08 605.537 634.208V656H602.417V632.048ZM632.865 651.536C633.153 651.76 633.505 652 633.921 652.256C634.369 652.512 634.881 652.752 635.457 652.976C636.033 653.2 636.657 653.392 637.329 653.552C638.001 653.68 638.705 653.744 639.441 653.744C640.977 653.744 642.257 653.488 643.281 652.976C644.337 652.432 645.185 651.712 645.825 650.816C646.465 649.888 646.929 648.816 647.217 647.6C647.505 646.352 647.649 645.04 647.649 643.664C647.649 640.4 646.833 637.904 645.201 636.176C643.569 634.416 641.409 633.536 638.721 633.536C637.185 633.536 635.937 633.616 634.977 633.776C634.049 633.904 633.345 634.048 632.865 634.208V651.536ZM632.865 664.88H629.745V632.048C630.673 631.728 631.857 631.424 633.297 631.136C634.737 630.848 636.561 630.704 638.769 630.704C640.593 630.704 642.241 631.008 643.713 631.616C645.217 632.192 646.497 633.04 647.553 634.16C648.641 635.28 649.473 636.64 650.049 638.24C650.657 639.84 650.961 641.648 650.961 643.664C650.961 645.552 650.705 647.296 650.193 648.896C649.713 650.464 648.993 651.824 648.033 652.976C647.073 654.096 645.889 654.976 644.481 655.616C643.105 656.256 641.521 656.576 639.729 656.576C638.097 656.576 636.673 656.352 635.457 655.904C634.273 655.424 633.409 654.976 632.865 654.56V664.88ZM676.786 655.136C675.858 655.392 674.61 655.68 673.042 656C671.474 656.32 669.554 656.48 667.282 656.48C665.426 656.48 663.874 656.208 662.626 655.664C661.378 655.12 660.37 654.352 659.602 653.36C658.834 652.368 658.274 651.168 657.922 649.76C657.602 648.352 657.442 646.8 657.442 645.104V631.184H660.562V644.096C660.562 645.856 660.69 647.344 660.946 648.56C661.202 649.776 661.618 650.768 662.194 651.536C662.77 652.272 663.506 652.816 664.402 653.168C665.33 653.488 666.45 653.648 667.762 653.648C669.234 653.648 670.514 653.568 671.602 653.408C672.69 653.248 673.378 653.104 673.666 652.976V631.184H676.786V655.136ZM687.986 631.184H697.874V633.824H687.986V647.024C687.986 648.432 688.098 649.584 688.322 650.48C688.578 651.344 688.93 652.016 689.378 652.496C689.826 652.976 690.37 653.296 691.01 653.456C691.65 653.616 692.354 653.696 693.122 653.696C694.434 653.696 695.49 653.552 696.29 653.264C697.09 652.944 697.714 652.656 698.162 652.4L698.93 654.992C698.482 655.28 697.698 655.616 696.578 656C695.458 656.352 694.242 656.528 692.93 656.528C691.394 656.528 690.098 656.336 689.042 655.952C688.018 655.536 687.186 654.928 686.546 654.128C685.938 653.296 685.506 652.272 685.25 651.056C684.994 649.84 684.866 648.4 684.866 646.736V623.888L687.986 623.312V631.184ZM719.63 653.792C721.422 653.792 722.894 653.504 724.046 652.928C725.23 652.32 725.822 651.312 725.822 649.904C725.822 649.232 725.71 648.656 725.486 648.176C725.294 647.696 724.958 647.264 724.478 646.88C723.998 646.496 723.358 646.128 722.558 645.776C721.79 645.424 720.83 645.008 719.678 644.528C718.75 644.144 717.87 643.76 717.038 643.376C716.206 642.96 715.47 642.496 714.83 641.984C714.19 641.44 713.678 640.8 713.294 640.064C712.91 639.328 712.718 638.432 712.718 637.376C712.718 635.36 713.47 633.728 714.974 632.48C716.51 631.232 718.606 630.608 721.262 630.608C722.958 630.608 724.35 630.752 725.438 631.04C726.558 631.328 727.342 631.584 727.79 631.808L727.07 634.592C726.686 634.4 726.03 634.144 725.102 633.824C724.206 633.504 722.878 633.344 721.118 633.344C720.414 633.344 719.742 633.424 719.102 633.584C718.494 633.712 717.95 633.936 717.47 634.256C716.99 634.544 716.606 634.928 716.318 635.408C716.03 635.856 715.886 636.416 715.886 637.088C715.886 637.76 716.014 638.336 716.27 638.816C716.526 639.296 716.894 639.728 717.374 640.112C717.886 640.464 718.494 640.8 719.198 641.12C719.934 641.44 720.766 641.792 721.694 642.176C722.654 642.56 723.566 642.96 724.43 643.376C725.326 643.76 726.11 644.24 726.782 644.816C727.454 645.36 727.998 646.032 728.414 646.832C728.83 647.6 729.038 648.576 729.038 649.76C729.038 652 728.19 653.696 726.494 654.848C724.83 656 722.542 656.576 719.63 656.576C717.454 656.576 715.79 656.384 714.638 656C713.486 655.648 712.718 655.376 712.334 655.184L713.15 652.352C713.246 652.416 713.454 652.528 713.774 652.688C714.094 652.816 714.526 652.976 715.07 653.168C715.614 653.328 716.254 653.472 716.99 653.6C717.758 653.728 718.638 653.792 719.63 653.792ZM738.193 656H735.073V631.184H738.193V656ZM738.913 623.696C738.913 624.432 738.689 625.024 738.241 625.472C737.793 625.888 737.249 626.096 736.609 626.096C735.969 626.096 735.425 625.888 734.977 625.472C734.529 625.024 734.305 624.432 734.305 623.696C734.305 622.96 734.529 622.384 734.977 621.968C735.425 621.52 735.969 621.296 736.609 621.296C737.249 621.296 737.793 621.52 738.241 621.968C738.689 622.384 738.913 622.96 738.913 623.696ZM761.872 633.728C761.136 634.56 760.176 635.712 758.992 637.184C757.808 638.656 756.544 640.304 755.2 642.128C753.856 643.92 752.528 645.808 751.216 647.792C749.904 649.744 748.752 651.6 747.76 653.36H762.304V656H744.16V653.744C744.992 652.176 746.016 650.448 747.232 648.56C748.48 646.672 749.76 644.816 751.072 642.992C752.384 641.136 753.664 639.408 754.912 637.808C756.16 636.176 757.216 634.848 758.08 633.824H744.88V631.184H761.872V633.728ZM766.445 643.568C766.445 641.392 766.749 639.504 767.357 637.904C767.997 636.272 768.813 634.912 769.805 633.824C770.829 632.736 771.981 631.936 773.261 631.424C774.573 630.88 775.917 630.608 777.293 630.608C780.333 630.608 782.749 631.6 784.541 633.584C786.365 635.568 787.277 638.624 787.277 642.752C787.277 643.008 787.261 643.264 787.229 643.52C787.229 643.776 787.213 644.016 787.181 644.24H769.757C769.853 647.28 770.605 649.616 772.013 651.248C773.421 652.88 775.661 653.696 778.733 653.696C780.429 653.696 781.773 653.536 782.765 653.216C783.757 652.896 784.477 652.624 784.925 652.4L785.501 655.088C785.053 655.344 784.205 655.648 782.957 656C781.741 656.352 780.301 656.528 778.637 656.528C776.461 656.528 774.605 656.208 773.069 655.568C771.533 654.928 770.269 654.032 769.277 652.88C768.285 651.728 767.565 650.368 767.117 648.8C766.669 647.2 766.445 645.456 766.445 643.568ZM784.061 641.6C783.997 639.008 783.389 636.992 782.237 635.552C781.085 634.112 779.453 633.392 777.341 633.392C776.221 633.392 775.213 633.616 774.317 634.064C773.453 634.512 772.685 635.12 772.013 635.888C771.373 636.624 770.861 637.488 770.477 638.48C770.125 639.472 769.917 640.512 769.853 641.6H784.061Z" fill="white"/>
<path d="M65.7122 211.184H75.6003V213.824H65.7122V227.024C65.7122 228.432 65.8243 229.584 66.0483 230.48C66.3043 231.344 66.6563 232.016 67.1043 232.496C67.5523 232.976 68.0963 233.296 68.7363 233.456C69.3763 233.616 70.0803 233.696 70.8483 233.696C72.1603 233.696 73.2163 233.552 74.0163 233.264C74.8163 232.944 75.4403 232.656 75.8883 232.4L76.6563 234.992C76.2083 235.28 75.4243 235.616 74.3043 236C73.1843 236.352 71.9683 236.528 70.6562 236.528C69.1203 236.528 67.8243 236.336 66.7683 235.952C65.7443 235.536 64.9123 234.928 64.2723 234.128C63.6643 233.296 63.2323 232.272 62.9763 231.056C62.7203 229.84 62.5923 228.4 62.5923 226.736V203.888L65.7122 203.312V211.184ZM84.4668 236H81.3468V211.184H84.4668V236ZM85.1868 203.696C85.1868 204.432 84.9628 205.024 84.5148 205.472C84.0668 205.888 83.5228 206.096 82.8828 206.096C82.2428 206.096 81.6988 205.888 81.2508 205.472C80.8028 205.024 80.5788 204.432 80.5788 203.696C80.5788 202.96 80.8028 202.384 81.2508 201.968C81.6988 201.52 82.2428 201.296 82.8828 201.296C83.5228 201.296 84.0668 201.52 84.5148 201.968C84.9628 202.384 85.1868 202.96 85.1868 203.696ZM92.7374 212.048C93.6654 211.792 94.8654 211.504 96.3374 211.184C97.8414 210.864 99.7774 210.704 102.145 210.704C105.281 210.704 107.553 211.616 108.961 213.44C109.121 213.312 109.425 213.104 109.873 212.816C110.353 212.496 110.945 212.176 111.649 211.856C112.353 211.536 113.169 211.264 114.097 211.04C115.057 210.816 116.113 210.704 117.265 210.704C119.153 210.704 120.673 210.992 121.825 211.568C123.009 212.112 123.921 212.896 124.561 213.92C125.201 214.912 125.633 216.112 125.857 217.52C126.081 218.928 126.193 220.464 126.193 222.128V236H123.073V223.136C123.073 221.504 122.993 220.096 122.833 218.912C122.705 217.696 122.417 216.704 121.969 215.936C121.553 215.136 120.945 214.544 120.145 214.16C119.345 213.744 118.305 213.536 117.025 213.536C116.065 213.536 115.185 213.632 114.385 213.824C113.617 213.984 112.945 214.192 112.369 214.448C111.793 214.704 111.313 214.96 110.929 215.216C110.577 215.472 110.321 215.664 110.161 215.792C110.449 216.624 110.657 217.568 110.785 218.624C110.945 219.648 111.025 220.736 111.025 221.888V236L107.905 236V223.136C107.905 221.504 107.825 220.096 107.665 218.912C107.537 217.696 107.249 216.704 106.801 215.936C106.353 215.136 105.713 214.544 104.881 214.16C104.081 213.744 103.009 213.536 101.665 213.536C100.161 213.536 98.8814 213.616 97.8254 213.776C96.8014 213.936 96.1454 214.08 95.8574 214.208V236H92.7374V212.048ZM132.687 223.568C132.687 221.392 132.991 219.504 133.599 217.904C134.239 216.272 135.055 214.912 136.047 213.824C137.071 212.736 138.223 211.936 139.503 211.424C140.815 210.88 142.159 210.608 143.535 210.608C146.575 210.608 148.991 211.6 150.783 213.584C152.607 215.568 153.519 218.624 153.519 222.752C153.519 223.008 153.503 223.264 153.471 223.52C153.471 223.776 153.455 224.016 153.423 224.24H135.999C136.095 227.28 136.847 229.616 138.255 231.248C139.663 232.88 141.903 233.696 144.975 233.696C146.671 233.696 148.015 233.536 149.007 233.216C149.999 232.896 150.719 232.624 151.167 232.4L151.743 235.088C151.295 235.344 150.447 235.648 149.199 236C147.983 236.352 146.543 236.528 144.879 236.528C142.703 236.528 140.847 236.208 139.311 235.568C137.775 234.928 136.511 234.032 135.519 232.88C134.527 231.728 133.807 230.368 133.359 228.8C132.911 227.2 132.687 225.456 132.687 223.568ZM150.303 221.6C150.239 219.008 149.631 216.992 148.479 215.552C147.327 214.112 145.695 213.392 143.583 213.392C142.463 213.392 141.455 213.616 140.559 214.064C139.695 214.512 138.927 215.12 138.255 215.888C137.615 216.624 137.103 217.488 136.719 218.48C136.367 219.472 136.159 220.512 136.095 221.6H150.303Z" fill="white"/>
<path d="M696.193 211.36C695.419 211.627 694.433 211.88 693.233 212.12C692.033 212.36 690.513 212.48 688.673 212.48C687.153 212.48 685.766 212.24 684.513 211.76C683.286 211.253 682.219 210.533 681.312 209.6C680.433 208.667 679.739 207.533 679.233 206.2C678.753 204.867 678.513 203.36 678.513 201.68C678.513 200.107 678.713 198.667 679.113 197.36C679.539 196.027 680.153 194.88 680.953 193.92C681.753 192.96 682.726 192.213 683.873 191.68C685.046 191.147 686.379 190.88 687.873 190.88C689.233 190.88 690.406 191.08 691.393 191.48C692.406 191.853 693.139 192.213 693.593 192.56V181.44L696.193 180.96V211.36ZM693.593 195.08C693.353 194.893 693.046 194.693 692.673 194.48C692.326 194.267 691.913 194.067 691.433 193.88C690.953 193.693 690.433 193.547 689.873 193.44C689.313 193.307 688.726 193.24 688.113 193.24C686.833 193.24 685.753 193.467 684.873 193.92C684.019 194.373 683.326 194.987 682.793 195.76C682.259 196.507 681.873 197.4 681.633 198.44C681.393 199.453 681.273 200.533 681.273 201.68C681.273 204.4 681.953 206.493 683.313 207.96C684.673 209.4 686.473 210.12 688.713 210.12C689.993 210.12 691.019 210.067 691.793 209.96C692.593 209.827 693.193 209.693 693.593 209.56V195.08ZM701.833 201.64C701.833 199.827 702.086 198.253 702.593 196.92C703.126 195.56 703.806 194.427 704.633 193.52C705.486 192.613 706.446 191.947 707.513 191.52C708.606 191.067 709.726 190.84 710.873 190.84C713.406 190.84 715.419 191.667 716.913 193.32C718.433 194.973 719.193 197.52 719.193 200.96C719.193 201.173 719.179 201.387 719.153 201.6C719.153 201.813 719.139 202.013 719.113 202.2H704.593C704.673 204.733 705.299 206.68 706.473 208.04C707.646 209.4 709.513 210.08 712.073 210.08C713.486 210.08 714.606 209.947 715.433 209.68C716.259 209.413 716.859 209.187 717.233 209L717.713 211.24C717.339 211.453 716.633 211.707 715.593 212C714.579 212.293 713.379 212.44 711.993 212.44C710.179 212.44 708.633 212.173 707.353 211.64C706.073 211.107 705.019 210.36 704.193 209.4C703.366 208.44 702.766 207.307 702.393 206C702.019 204.667 701.833 203.213 701.833 201.64ZM716.513 200C716.459 197.84 715.953 196.16 714.993 194.96C714.033 193.76 712.673 193.16 710.913 193.16C709.979 193.16 709.139 193.347 708.393 193.72C707.673 194.093 707.033 194.6 706.473 195.24C705.939 195.853 705.513 196.573 705.193 197.4C704.899 198.227 704.726 199.093 704.673 200H716.513ZM733.547 212.44C731.947 212.44 730.534 212.187 729.307 211.68C728.08 211.173 727.054 210.453 726.227 209.52C725.427 208.56 724.814 207.427 724.387 206.12C723.96 204.787 723.747 203.32 723.747 201.72C723.747 200.093 723.96 198.613 724.387 197.28C724.84 195.947 725.48 194.8 726.307 193.84C727.134 192.88 728.134 192.147 729.307 191.64C730.48 191.107 731.8 190.84 733.267 190.84C734.387 190.84 735.427 190.933 736.387 191.12C737.374 191.307 738.134 191.547 738.667 191.84L737.987 194.08C737.454 193.813 736.854 193.6 736.187 193.44C735.52 193.28 734.627 193.2 733.507 193.2C731.214 193.2 729.467 193.947 728.267 195.44C727.094 196.907 726.507 199 726.507 201.72C726.507 202.947 726.64 204.08 726.907 205.12C727.174 206.133 727.6 207.013 728.187 207.76C728.8 208.48 729.574 209.053 730.507 209.48C731.467 209.88 732.627 210.08 733.987 210.08C735.107 210.08 736.04 209.96 736.787 209.72C737.56 209.453 738.12 209.227 738.467 209.04L739.027 211.28C738.547 211.547 737.787 211.8 736.747 212.04C735.734 212.307 734.667 212.44 733.547 212.44ZM748.625 212.36C747.745 212.333 746.972 212.213 746.305 212C745.665 211.813 745.119 211.52 744.665 211.12C744.239 210.693 743.905 210.16 743.665 209.52C743.452 208.853 743.345 208.027 743.345 207.04V181.44L745.945 180.96V206.96C745.945 207.6 745.999 208.12 746.105 208.52C746.239 208.893 746.425 209.2 746.665 209.44C746.905 209.653 747.212 209.813 747.585 209.92C747.985 210.027 748.452 210.12 748.985 210.2L748.625 212.36ZM760.101 210.12C761.114 210.12 761.994 210.093 762.741 210.04C763.514 209.96 764.167 209.867 764.701 209.76V202.48C764.407 202.347 763.941 202.213 763.301 202.08C762.661 201.92 761.781 201.84 760.661 201.84C760.021 201.84 759.354 201.893 758.661 202C757.967 202.08 757.327 202.28 756.741 202.6C756.154 202.893 755.674 203.307 755.301 203.84C754.927 204.373 754.741 205.08 754.741 205.96C754.741 206.733 754.861 207.387 755.101 207.92C755.367 208.453 755.727 208.88 756.181 209.2C756.661 209.52 757.221 209.76 757.861 209.92C758.527 210.053 759.274 210.12 760.101 210.12ZM759.861 190.84C761.221 190.84 762.367 191.04 763.301 191.44C764.261 191.813 765.034 192.347 765.621 193.04C766.207 193.707 766.634 194.507 766.901 195.44C767.167 196.373 767.301 197.387 767.301 198.48V211.52C767.034 211.6 766.647 211.693 766.141 211.8C765.634 211.88 765.047 211.973 764.381 212.08C763.714 212.187 762.967 212.267 762.141 212.32C761.341 212.4 760.514 212.44 759.661 212.44C758.567 212.44 757.554 212.32 756.621 212.08C755.714 211.84 754.914 211.467 754.221 210.96C753.554 210.427 753.021 209.76 752.621 208.96C752.247 208.133 752.061 207.133 752.061 205.96C752.061 204.84 752.274 203.88 752.701 203.08C753.127 202.28 753.727 201.627 754.501 201.12C755.274 200.587 756.194 200.2 757.261 199.96C758.327 199.72 759.487 199.6 760.741 199.6C761.114 199.6 761.501 199.627 761.901 199.68C762.327 199.707 762.727 199.76 763.101 199.84C763.501 199.893 763.834 199.96 764.101 200.04C764.394 200.093 764.594 200.147 764.701 200.2V198.92C764.701 198.2 764.647 197.507 764.541 196.84C764.434 196.147 764.194 195.533 763.821 195C763.474 194.44 762.967 194 762.301 193.68C761.661 193.333 760.807 193.16 759.741 193.16C758.221 193.16 757.087 193.267 756.341 193.48C755.594 193.693 755.047 193.867 754.701 194L754.341 191.72C754.794 191.507 755.487 191.307 756.421 191.12C757.381 190.933 758.527 190.84 759.861 190.84ZM780.972 190.92C781.826 190.92 782.626 190.987 783.372 191.12C784.146 191.253 784.679 191.387 784.972 191.52L784.452 193.76C784.239 193.653 783.799 193.547 783.132 193.44C782.492 193.307 781.639 193.24 780.572 193.24C779.452 193.24 778.546 193.32 777.852 193.48C777.186 193.64 776.746 193.773 776.532 193.88V212H773.932V192.28C774.599 191.987 775.519 191.693 776.692 191.4C777.866 191.08 779.292 190.92 780.972 190.92ZM787.653 201.64C787.653 199.827 787.906 198.253 788.413 196.92C788.946 195.56 789.626 194.427 790.453 193.52C791.306 192.613 792.266 191.947 793.333 191.52C794.426 191.067 795.546 190.84 796.693 190.84C799.226 190.84 801.24 191.667 802.733 193.32C804.253 194.973 805.013 197.52 805.013 200.96C805.013 201.173 805 201.387 804.973 201.6C804.973 201.813 804.96 202.013 804.933 202.2H790.413C790.493 204.733 791.12 206.68 792.293 208.04C793.466 209.4 795.333 210.08 797.893 210.08C799.306 210.08 800.426 209.947 801.253 209.68C802.08 209.413 802.68 209.187 803.053 209L803.533 211.24C803.16 211.453 802.453 211.707 801.413 212C800.4 212.293 799.2 212.44 797.813 212.44C796 212.44 794.453 212.173 793.173 211.64C791.893 211.107 790.84 210.36 790.013 209.4C789.186 208.44 788.586 207.307 788.213 206C787.84 204.667 787.653 203.213 787.653 201.64ZM802.333 200C802.28 197.84 801.773 196.16 800.813 194.96C799.853 193.76 798.493 193.16 796.733 193.16C795.8 193.16 794.96 193.347 794.213 193.72C793.493 194.093 792.853 194.6 792.293 195.24C791.76 195.853 791.333 196.573 791.013 197.4C790.72 198.227 790.546 199.093 790.493 200H802.333ZM827.247 211.36C826.474 211.627 825.487 211.88 824.287 212.12C823.087 212.36 821.567 212.48 819.727 212.48C818.207 212.48 816.821 212.24 815.567 211.76C814.341 211.253 813.274 210.533 812.367 209.6C811.487 208.667 810.794 207.533 810.287 206.2C809.807 204.867 809.567 203.36 809.567 201.68C809.567 200.107 809.767 198.667 810.167 197.36C810.594 196.027 811.207 194.88 812.007 193.92C812.807 192.96 813.781 192.213 814.927 191.68C816.101 191.147 817.434 190.88 818.927 190.88C820.287 190.88 821.461 191.08 822.447 191.48C823.461 191.853 824.194 192.213 824.647 192.56V181.44L827.247 180.96V211.36ZM824.647 195.08C824.407 194.893 824.101 194.693 823.727 194.48C823.381 194.267 822.967 194.067 822.487 193.88C822.007 193.693 821.487 193.547 820.927 193.44C820.367 193.307 819.781 193.24 819.167 193.24C817.887 193.24 816.807 193.467 815.927 193.92C815.074 194.373 814.381 194.987 813.847 195.76C813.314 196.507 812.927 197.4 812.687 198.44C812.447 199.453 812.327 200.533 812.327 201.68C812.327 204.4 813.007 206.493 814.367 207.96C815.727 209.4 817.527 210.12 819.767 210.12C821.047 210.12 822.074 210.067 822.847 209.96C823.647 209.827 824.247 209.693 824.647 209.56V195.08Z" fill="white"/>
<path d="M709.69 395.12C710.704 395.12 711.584 395.093 712.33 395.04C713.104 394.96 713.757 394.867 714.29 394.76V387.48C713.997 387.347 713.53 387.213 712.89 387.08C712.25 386.92 711.37 386.84 710.25 386.84C709.61 386.84 708.944 386.893 708.25 387C707.557 387.08 706.917 387.28 706.33 387.6C705.744 387.893 705.264 388.307 704.89 388.84C704.517 389.373 704.33 390.08 704.33 390.96C704.33 391.733 704.45 392.387 704.69 392.92C704.957 393.453 705.317 393.88 705.77 394.2C706.25 394.52 706.81 394.76 707.45 394.92C708.117 395.053 708.864 395.12 709.69 395.12ZM709.45 375.84C710.81 375.84 711.957 376.04 712.89 376.44C713.85 376.813 714.624 377.347 715.21 378.04C715.797 378.707 716.224 379.507 716.49 380.44C716.757 381.373 716.89 382.387 716.89 383.48V396.52C716.624 396.6 716.237 396.693 715.73 396.8C715.224 396.88 714.637 396.973 713.97 397.08C713.304 397.187 712.557 397.267 711.73 397.32C710.93 397.4 710.104 397.44 709.25 397.44C708.157 397.44 707.144 397.32 706.21 397.08C705.304 396.84 704.504 396.467 703.81 395.96C703.144 395.427 702.61 394.76 702.21 393.96C701.837 393.133 701.65 392.133 701.65 390.96C701.65 389.84 701.864 388.88 702.29 388.08C702.717 387.28 703.317 386.627 704.09 386.12C704.864 385.587 705.784 385.2 706.85 384.96C707.917 384.72 709.077 384.6 710.33 384.6C710.704 384.6 711.09 384.627 711.49 384.68C711.917 384.707 712.317 384.76 712.69 384.84C713.09 384.893 713.424 384.96 713.69 385.04C713.984 385.093 714.184 385.147 714.29 385.2V383.92C714.29 383.2 714.237 382.507 714.13 381.84C714.024 381.147 713.784 380.533 713.41 380C713.064 379.44 712.557 379 711.89 378.68C711.25 378.333 710.397 378.16 709.33 378.16C707.81 378.16 706.677 378.267 705.93 378.48C705.184 378.693 704.637 378.867 704.29 379L703.93 376.72C704.384 376.507 705.077 376.307 706.01 376.12C706.97 375.933 708.117 375.84 709.45 375.84ZM732.082 397.44C730.482 397.44 729.069 397.187 727.842 396.68C726.615 396.173 725.589 395.453 724.762 394.52C723.962 393.56 723.349 392.427 722.922 391.12C722.495 389.787 722.282 388.32 722.282 386.72C722.282 385.093 722.495 383.613 722.922 382.28C723.375 380.947 724.015 379.8 724.842 378.84C725.669 377.88 726.669 377.147 727.842 376.64C729.015 376.107 730.335 375.84 731.802 375.84C732.922 375.84 733.962 375.933 734.922 376.12C735.909 376.307 736.669 376.547 737.202 376.84L736.522 379.08C735.989 378.813 735.389 378.6 734.722 378.44C734.055 378.28 733.162 378.2 732.042 378.2C729.749 378.2 728.002 378.947 726.802 380.44C725.629 381.907 725.042 384 725.042 386.72C725.042 387.947 725.175 389.08 725.442 390.12C725.709 391.133 726.135 392.013 726.722 392.76C727.335 393.48 728.109 394.053 729.042 394.48C730.002 394.88 731.162 395.08 732.522 395.08C733.642 395.08 734.575 394.96 735.322 394.72C736.095 394.453 736.655 394.227 737.002 394.04L737.562 396.28C737.082 396.547 736.322 396.8 735.282 397.04C734.269 397.307 733.202 397.44 732.082 397.44ZM744.36 376.32H752.6V378.52H744.36V389.52C744.36 390.693 744.454 391.653 744.64 392.4C744.854 393.12 745.147 393.68 745.52 394.08C745.894 394.48 746.347 394.747 746.88 394.88C747.414 395.013 748 395.08 748.64 395.08C749.734 395.08 750.614 394.96 751.28 394.72C751.947 394.453 752.467 394.213 752.84 394L753.48 396.16C753.107 396.4 752.454 396.68 751.52 397C750.587 397.293 749.574 397.44 748.48 397.44C747.2 397.44 746.12 397.28 745.24 396.96C744.387 396.613 743.694 396.107 743.16 395.44C742.654 394.747 742.294 393.893 742.08 392.88C741.867 391.867 741.76 390.667 741.76 389.28V370.24L744.36 369.76V376.32ZM773.269 396.28C772.496 396.493 771.456 396.733 770.149 397C768.843 397.267 767.243 397.4 765.349 397.4C763.803 397.4 762.509 397.173 761.469 396.72C760.429 396.267 759.589 395.627 758.949 394.8C758.309 393.973 757.843 392.973 757.549 391.8C757.283 390.627 757.149 389.333 757.149 387.92V376.32H759.749V387.08C759.749 388.547 759.856 389.787 760.069 390.8C760.283 391.813 760.629 392.64 761.109 393.28C761.589 393.893 762.203 394.347 762.949 394.64C763.723 394.907 764.656 395.04 765.749 395.04C766.976 395.04 768.043 394.973 768.949 394.84C769.856 394.707 770.429 394.587 770.669 394.48V376.32H773.269V396.28ZM786.683 395.12C787.696 395.12 788.576 395.093 789.323 395.04C790.096 394.96 790.749 394.867 791.283 394.76V387.48C790.989 387.347 790.523 387.213 789.883 387.08C789.243 386.92 788.363 386.84 787.243 386.84C786.603 386.84 785.936 386.893 785.243 387C784.549 387.08 783.909 387.28 783.323 387.6C782.736 387.893 782.256 388.307 781.883 388.84C781.509 389.373 781.323 390.08 781.323 390.96C781.323 391.733 781.443 392.387 781.683 392.92C781.949 393.453 782.309 393.88 782.763 394.2C783.243 394.52 783.803 394.76 784.443 394.92C785.109 395.053 785.856 395.12 786.683 395.12ZM786.443 375.84C787.803 375.84 788.949 376.04 789.883 376.44C790.843 376.813 791.616 377.347 792.203 378.04C792.789 378.707 793.216 379.507 793.483 380.44C793.749 381.373 793.883 382.387 793.883 383.48V396.52C793.616 396.6 793.229 396.693 792.723 396.8C792.216 396.88 791.629 396.973 790.963 397.08C790.296 397.187 789.549 397.267 788.723 397.32C787.923 397.4 787.096 397.44 786.243 397.44C785.149 397.44 784.136 397.32 783.203 397.08C782.296 396.84 781.496 396.467 780.803 395.96C780.136 395.427 779.603 394.76 779.203 393.96C778.829 393.133 778.643 392.133 778.643 390.96C778.643 389.84 778.856 388.88 779.283 388.08C779.709 387.28 780.309 386.627 781.083 386.12C781.856 385.587 782.776 385.2 783.843 384.96C784.909 384.72 786.069 384.6 787.323 384.6C787.696 384.6 788.083 384.627 788.483 384.68C788.909 384.707 789.309 384.76 789.683 384.84C790.083 384.893 790.416 384.96 790.683 385.04C790.976 385.093 791.176 385.147 791.283 385.2V383.92C791.283 383.2 791.229 382.507 791.123 381.84C791.016 381.147 790.776 380.533 790.403 380C790.056 379.44 789.549 379 788.883 378.68C788.243 378.333 787.389 378.16 786.323 378.16C784.803 378.16 783.669 378.267 782.923 378.48C782.176 378.693 781.629 378.867 781.283 379L780.923 376.72C781.376 376.507 782.069 376.307 783.003 376.12C783.963 375.933 785.109 375.84 786.443 375.84ZM805.754 397.36C804.874 397.333 804.101 397.213 803.434 397C802.794 396.813 802.248 396.52 801.794 396.12C801.368 395.693 801.034 395.16 800.794 394.52C800.581 393.853 800.474 393.027 800.474 392.04V366.44L803.074 365.96V391.96C803.074 392.6 803.128 393.12 803.234 393.52C803.368 393.893 803.554 394.2 803.794 394.44C804.034 394.653 804.341 394.813 804.714 394.92C805.114 395.027 805.581 395.12 806.114 395.2L805.754 397.36Z" fill="#E95420"/>
<path d="M212.804 536.44C216.696 521.304 239.132 512.903 252.941 512.903C255.782 512.903 261.796 517.627 263.943 512.903C267.983 504.015 276.434 515.34 279.245 505.624C280.057 502.816 281.113 499.92 281.33 496.984C281.621 493.058 280.603 489.244 280.245 485.364C279.861 481.207 279.804 476.647 280.415 472.489C280.696 470.583 280.727 471.311 281.33 469.501C287.5 456.501 289.216 456.793 295 478.001C297.527 487.268 295.849 480.735 298.781 489.876C299.731 492.837 301.233 495.738 301.697 498.75C301.861 499.817 302.473 500.755 302.74 501.794C302.846 502.208 302.644 503.079 302.91 503.411C303.191 503.763 303.245 504.402 303.591 503.709C310.459 489.972 316.272 495.423 318.999 486.939C324.746 469.059 324.5 463.001 331.64 480.214C332.003 482.031 333.058 483.543 333.449 485.3C334.024 487.887 334.236 484.68 334.236 483.577C347.5 476.001 361.5 475.501 365.733 473.915C365.787 473.968 366.801 467.601 367.01 466.913C369.876 457.496 371.516 465.93 372.543 460.507C378.5 449.207 388.5 449.207 395.762 444.078C396.204 444.589 398.852 449.424 398.996 449.207C399.491 448.466 402.292 441.622 402.721 441.907C402.976 442.077 405.169 435.789 405.487 435.012C409.323 425.635 426.702 435.511 429.195 432.394C429.622 431.861 429.356 430.374 429.791 429.628C430.257 428.828 431.459 431.667 431.578 431.905C447.143 463.034 449.239 422.902 460.053 438.907C460.638 439.772 461.632 440.434 462.16 441.226C462.592 441.875 462.428 439.691 462.586 438.928C463.036 436.751 469.777 437.608 472.907 437.608C483.119 437.608 487.932 423.598 489.847 414.114C499.579 365.934 519.242 368.341 523.068 406.601C523.283 408.747 523.855 410.99 523.855 413.113C523.855 414.927 524.239 416.627 524.239 418.455C524.239 419.062 524.423 420.996 524.834 420.115C525.229 419.269 527.477 412.774 528.154 413.858C529.221 415.566 543.506 385.63 554.884 410.538C571.5 431.905 570.935 361.6 588.19 392.874C588.498 393.433 588.803 394.451 588.998 393.768C589.087 393.458 591.674 396.803 591.701 396.769C598.267 388.562 609.663 394.641 609.663 386.043C609.663 385.94 619.864 355.063 626.5 373.764C627.903 377.717 650.246 362.462 653 369.001C653.038 369.09 654.475 370.1 656.355 372.763C656.364 372.777 657.139 373.924 657.185 373.764C657.713 371.915 658.044 369.979 658.483 368.103C663.743 345.628 652.748 287.202 671.805 344.055C672.627 346.506 673.361 348.93 674.04 351.418C674.662 353.699 681 353.908 685.596 352.95C687.493 352.874 688.948 353.13 690.661 353.908C691.119 354.116 715.877 344.182 723.626 344.182C731.454 344.182 738.132 339.906 738.757 333.158C747.475 308.358 749.969 320.935 758.506 334.35C758.801 334.813 759.043 335.492 759.06 334.691C759.161 329.907 771.328 318.862 777.149 322.475C779.918 324.194 781.42 326.532 783.895 323.284C786.656 319.661 792.836 301.77 798.111 307.706C805.534 316.056 812.298 315.444 814.456 317.601C819.368 322.514 832.019 318.904 833.971 307.471C834.585 303.876 839.867 300.43 842.185 305.067" stroke="#E95420" stroke-width="3" stroke-linecap="round"/>
</g>
<defs>
<clipPath id="clip0_5022_3260">
<rect width="1059" height="755" fill="white"/>
</clipPath>
</defs>
</svg>
