<svg width="1059" height="755" viewBox="0 0 1059 755" fill="none" xmlns="http://www.w3.org/2000/svg">
<g clip-path="url(#clip0_5022_3249)">
<path d="M213 459L846 226" stroke="white" stroke-width="3" stroke-linecap="round" stroke-linejoin="round"/>
<path d="M213 174V581H846" stroke="white" stroke-width="3" stroke-linecap="round" stroke-linejoin="round"/>
<path d="M594.146 656H591.026V631.184H594.146V656ZM594.866 623.696C594.866 624.432 594.642 625.024 594.194 625.472C593.746 625.888 593.202 626.096 592.562 626.096C591.922 626.096 591.378 625.888 590.93 625.472C590.482 625.024 590.258 624.432 590.258 623.696C590.258 622.96 590.482 622.384 590.93 621.968C591.378 621.52 591.922 621.296 592.562 621.296C593.202 621.296 593.746 621.52 594.194 621.968C594.642 622.384 594.866 622.96 594.866 623.696ZM602.417 632.048C603.345 631.792 604.593 631.504 606.161 631.184C607.729 630.864 609.649 630.704 611.921 630.704C613.809 630.704 615.377 630.976 616.625 631.52C617.905 632.064 618.913 632.848 619.649 633.872C620.417 634.864 620.961 636.064 621.281 637.472C621.601 638.88 621.761 640.432 621.761 642.128V656H618.641V643.136C618.641 641.376 618.513 639.888 618.257 638.672C618.033 637.456 617.633 636.464 617.057 635.696C616.513 634.928 615.777 634.384 614.849 634.064C613.953 633.712 612.817 633.536 611.441 633.536C609.969 633.536 608.689 633.616 607.601 633.776C606.545 633.936 605.857 634.08 605.537 634.208V656H602.417V632.048ZM632.865 651.536C633.153 651.76 633.505 652 633.921 652.256C634.369 652.512 634.881 652.752 635.457 652.976C636.033 653.2 636.657 653.392 637.329 653.552C638.001 653.68 638.705 653.744 639.441 653.744C640.977 653.744 642.257 653.488 643.281 652.976C644.337 652.432 645.185 651.712 645.825 650.816C646.465 649.888 646.929 648.816 647.217 647.6C647.505 646.352 647.649 645.04 647.649 643.664C647.649 640.4 646.833 637.904 645.201 636.176C643.569 634.416 641.409 633.536 638.721 633.536C637.185 633.536 635.937 633.616 634.977 633.776C634.049 633.904 633.345 634.048 632.865 634.208V651.536ZM632.865 664.88H629.745V632.048C630.673 631.728 631.857 631.424 633.297 631.136C634.737 630.848 636.561 630.704 638.769 630.704C640.593 630.704 642.241 631.008 643.713 631.616C645.217 632.192 646.497 633.04 647.553 634.16C648.641 635.28 649.473 636.64 650.049 638.24C650.657 639.84 650.961 641.648 650.961 643.664C650.961 645.552 650.705 647.296 650.193 648.896C649.713 650.464 648.993 651.824 648.033 652.976C647.073 654.096 645.889 654.976 644.481 655.616C643.105 656.256 641.521 656.576 639.729 656.576C638.097 656.576 636.673 656.352 635.457 655.904C634.273 655.424 633.409 654.976 632.865 654.56V664.88ZM676.786 655.136C675.858 655.392 674.61 655.68 673.042 656C671.474 656.32 669.554 656.48 667.282 656.48C665.426 656.48 663.874 656.208 662.626 655.664C661.378 655.12 660.37 654.352 659.602 653.36C658.834 652.368 658.274 651.168 657.922 649.76C657.602 648.352 657.442 646.8 657.442 645.104V631.184H660.562V644.096C660.562 645.856 660.69 647.344 660.946 648.56C661.202 649.776 661.618 650.768 662.194 651.536C662.77 652.272 663.506 652.816 664.402 653.168C665.33 653.488 666.45 653.648 667.762 653.648C669.234 653.648 670.514 653.568 671.602 653.408C672.69 653.248 673.378 653.104 673.666 652.976V631.184H676.786V655.136ZM687.986 631.184H697.874V633.824H687.986V647.024C687.986 648.432 688.098 649.584 688.322 650.48C688.578 651.344 688.93 652.016 689.378 652.496C689.826 652.976 690.37 653.296 691.01 653.456C691.65 653.616 692.354 653.696 693.122 653.696C694.434 653.696 695.49 653.552 696.29 653.264C697.09 652.944 697.714 652.656 698.162 652.4L698.93 654.992C698.482 655.28 697.698 655.616 696.578 656C695.458 656.352 694.242 656.528 692.93 656.528C691.394 656.528 690.098 656.336 689.042 655.952C688.018 655.536 687.186 654.928 686.546 654.128C685.938 653.296 685.506 652.272 685.25 651.056C684.994 649.84 684.866 648.4 684.866 646.736V623.888L687.986 623.312V631.184ZM719.63 653.792C721.422 653.792 722.894 653.504 724.046 652.928C725.23 652.32 725.822 651.312 725.822 649.904C725.822 649.232 725.71 648.656 725.486 648.176C725.294 647.696 724.958 647.264 724.478 646.88C723.998 646.496 723.358 646.128 722.558 645.776C721.79 645.424 720.83 645.008 719.678 644.528C718.75 644.144 717.87 643.76 717.038 643.376C716.206 642.96 715.47 642.496 714.83 641.984C714.19 641.44 713.678 640.8 713.294 640.064C712.91 639.328 712.718 638.432 712.718 637.376C712.718 635.36 713.47 633.728 714.974 632.48C716.51 631.232 718.606 630.608 721.262 630.608C722.958 630.608 724.35 630.752 725.438 631.04C726.558 631.328 727.342 631.584 727.79 631.808L727.07 634.592C726.686 634.4 726.03 634.144 725.102 633.824C724.206 633.504 722.878 633.344 721.118 633.344C720.414 633.344 719.742 633.424 719.102 633.584C718.494 633.712 717.95 633.936 717.47 634.256C716.99 634.544 716.606 634.928 716.318 635.408C716.03 635.856 715.886 636.416 715.886 637.088C715.886 637.76 716.014 638.336 716.27 638.816C716.526 639.296 716.894 639.728 717.374 640.112C717.886 640.464 718.494 640.8 719.198 641.12C719.934 641.44 720.766 641.792 721.694 642.176C722.654 642.56 723.566 642.96 724.43 643.376C725.326 643.76 726.11 644.24 726.782 644.816C727.454 645.36 727.998 646.032 728.414 646.832C728.83 647.6 729.038 648.576 729.038 649.76C729.038 652 728.19 653.696 726.494 654.848C724.83 656 722.542 656.576 719.63 656.576C717.454 656.576 715.79 656.384 714.638 656C713.486 655.648 712.718 655.376 712.334 655.184L713.15 652.352C713.246 652.416 713.454 652.528 713.774 652.688C714.094 652.816 714.526 652.976 715.07 653.168C715.614 653.328 716.254 653.472 716.99 653.6C717.758 653.728 718.638 653.792 719.63 653.792ZM738.193 656H735.073V631.184H738.193V656ZM738.913 623.696C738.913 624.432 738.689 625.024 738.241 625.472C737.793 625.888 737.249 626.096 736.609 626.096C735.969 626.096 735.425 625.888 734.977 625.472C734.529 625.024 734.305 624.432 734.305 623.696C734.305 622.96 734.529 622.384 734.977 621.968C735.425 621.52 735.969 621.296 736.609 621.296C737.249 621.296 737.793 621.52 738.241 621.968C738.689 622.384 738.913 622.96 738.913 623.696ZM761.872 633.728C761.136 634.56 760.176 635.712 758.992 637.184C757.808 638.656 756.544 640.304 755.2 642.128C753.856 643.92 752.528 645.808 751.216 647.792C749.904 649.744 748.752 651.6 747.76 653.36H762.304V656H744.16V653.744C744.992 652.176 746.016 650.448 747.232 648.56C748.48 646.672 749.76 644.816 751.072 642.992C752.384 641.136 753.664 639.408 754.912 637.808C756.16 636.176 757.216 634.848 758.08 633.824H744.88V631.184H761.872V633.728ZM766.445 643.568C766.445 641.392 766.749 639.504 767.357 637.904C767.997 636.272 768.813 634.912 769.805 633.824C770.829 632.736 771.981 631.936 773.261 631.424C774.573 630.88 775.917 630.608 777.293 630.608C780.333 630.608 782.749 631.6 784.541 633.584C786.365 635.568 787.277 638.624 787.277 642.752C787.277 643.008 787.261 643.264 787.229 643.52C787.229 643.776 787.213 644.016 787.181 644.24H769.757C769.853 647.28 770.605 649.616 772.013 651.248C773.421 652.88 775.661 653.696 778.733 653.696C780.429 653.696 781.773 653.536 782.765 653.216C783.757 652.896 784.477 652.624 784.925 652.4L785.501 655.088C785.053 655.344 784.205 655.648 782.957 656C781.741 656.352 780.301 656.528 778.637 656.528C776.461 656.528 774.605 656.208 773.069 655.568C771.533 654.928 770.269 654.032 769.277 652.88C768.285 651.728 767.565 650.368 767.117 648.8C766.669 647.2 766.445 645.456 766.445 643.568ZM784.061 641.6C783.997 639.008 783.389 636.992 782.237 635.552C781.085 634.112 779.453 633.392 777.341 633.392C776.221 633.392 775.213 633.616 774.317 634.064C773.453 634.512 772.685 635.12 772.013 635.888C771.373 636.624 770.861 637.488 770.477 638.48C770.125 639.472 769.917 640.512 769.853 641.6H784.061Z" fill="white"/>
<path d="M65.7122 211.184H75.6003V213.824H65.7122V227.024C65.7122 228.432 65.8243 229.584 66.0483 230.48C66.3043 231.344 66.6563 232.016 67.1043 232.496C67.5523 232.976 68.0963 233.296 68.7363 233.456C69.3763 233.616 70.0803 233.696 70.8483 233.696C72.1603 233.696 73.2163 233.552 74.0163 233.264C74.8163 232.944 75.4403 232.656 75.8883 232.4L76.6563 234.992C76.2083 235.28 75.4243 235.616 74.3043 236C73.1843 236.352 71.9683 236.528 70.6562 236.528C69.1203 236.528 67.8243 236.336 66.7683 235.952C65.7443 235.536 64.9123 234.928 64.2723 234.128C63.6643 233.296 63.2323 232.272 62.9763 231.056C62.7203 229.84 62.5923 228.4 62.5923 226.736V203.888L65.7122 203.312V211.184ZM84.4668 236H81.3468V211.184H84.4668V236ZM85.1868 203.696C85.1868 204.432 84.9628 205.024 84.5148 205.472C84.0668 205.888 83.5228 206.096 82.8828 206.096C82.2428 206.096 81.6988 205.888 81.2508 205.472C80.8028 205.024 80.5788 204.432 80.5788 203.696C80.5788 202.96 80.8028 202.384 81.2508 201.968C81.6988 201.52 82.2428 201.296 82.8828 201.296C83.5228 201.296 84.0668 201.52 84.5148 201.968C84.9628 202.384 85.1868 202.96 85.1868 203.696ZM92.7374 212.048C93.6654 211.792 94.8654 211.504 96.3374 211.184C97.8414 210.864 99.7774 210.704 102.145 210.704C105.281 210.704 107.553 211.616 108.961 213.44C109.121 213.312 109.425 213.104 109.873 212.816C110.353 212.496 110.945 212.176 111.649 211.856C112.353 211.536 113.169 211.264 114.097 211.04C115.057 210.816 116.113 210.704 117.265 210.704C119.153 210.704 120.673 210.992 121.825 211.568C123.009 212.112 123.921 212.896 124.561 213.92C125.201 214.912 125.633 216.112 125.857 217.52C126.081 218.928 126.193 220.464 126.193 222.128V236H123.073V223.136C123.073 221.504 122.993 220.096 122.833 218.912C122.705 217.696 122.417 216.704 121.969 215.936C121.553 215.136 120.945 214.544 120.145 214.16C119.345 213.744 118.305 213.536 117.025 213.536C116.065 213.536 115.185 213.632 114.385 213.824C113.617 213.984 112.945 214.192 112.369 214.448C111.793 214.704 111.313 214.96 110.929 215.216C110.577 215.472 110.321 215.664 110.161 215.792C110.449 216.624 110.657 217.568 110.785 218.624C110.945 219.648 111.025 220.736 111.025 221.888V236L107.905 236V223.136C107.905 221.504 107.825 220.096 107.665 218.912C107.537 217.696 107.249 216.704 106.801 215.936C106.353 215.136 105.713 214.544 104.881 214.16C104.081 213.744 103.009 213.536 101.665 213.536C100.161 213.536 98.8814 213.616 97.8254 213.776C96.8014 213.936 96.1454 214.08 95.8574 214.208V236H92.7374V212.048ZM132.687 223.568C132.687 221.392 132.991 219.504 133.599 217.904C134.239 216.272 135.055 214.912 136.047 213.824C137.071 212.736 138.223 211.936 139.503 211.424C140.815 210.88 142.159 210.608 143.535 210.608C146.575 210.608 148.991 211.6 150.783 213.584C152.607 215.568 153.519 218.624 153.519 222.752C153.519 223.008 153.503 223.264 153.471 223.52C153.471 223.776 153.455 224.016 153.423 224.24H135.999C136.095 227.28 136.847 229.616 138.255 231.248C139.663 232.88 141.903 233.696 144.975 233.696C146.671 233.696 148.015 233.536 149.007 233.216C149.999 232.896 150.719 232.624 151.167 232.4L151.743 235.088C151.295 235.344 150.447 235.648 149.199 236C147.983 236.352 146.543 236.528 144.879 236.528C142.703 236.528 140.847 236.208 139.311 235.568C137.775 234.928 136.511 234.032 135.519 232.88C134.527 231.728 133.807 230.368 133.359 228.8C132.911 227.2 132.687 225.456 132.687 223.568ZM150.303 221.6C150.239 219.008 149.631 216.992 148.479 215.552C147.327 214.112 145.695 213.392 143.583 213.392C142.463 213.392 141.455 213.616 140.559 214.064C139.695 214.512 138.927 215.12 138.255 215.888C137.615 216.624 137.103 217.488 136.719 218.48C136.367 219.472 136.159 220.512 136.095 221.6H150.303Z" fill="white"/>
<path d="M696.193 211.36C695.419 211.627 694.433 211.88 693.233 212.12C692.033 212.36 690.513 212.48 688.673 212.48C687.153 212.48 685.766 212.24 684.513 211.76C683.286 211.253 682.219 210.533 681.312 209.6C680.433 208.667 679.739 207.533 679.233 206.2C678.753 204.867 678.513 203.36 678.513 201.68C678.513 200.107 678.713 198.667 679.113 197.36C679.539 196.027 680.153 194.88 680.953 193.92C681.753 192.96 682.726 192.213 683.873 191.68C685.046 191.147 686.379 190.88 687.873 190.88C689.233 190.88 690.406 191.08 691.393 191.48C692.406 191.853 693.139 192.213 693.593 192.56V181.44L696.193 180.96V211.36ZM693.593 195.08C693.353 194.893 693.046 194.693 692.673 194.48C692.326 194.267 691.913 194.067 691.433 193.88C690.953 193.693 690.433 193.547 689.873 193.44C689.313 193.307 688.726 193.24 688.113 193.24C686.833 193.24 685.753 193.467 684.873 193.92C684.019 194.373 683.326 194.987 682.793 195.76C682.259 196.507 681.873 197.4 681.633 198.44C681.393 199.453 681.273 200.533 681.273 201.68C681.273 204.4 681.953 206.493 683.313 207.96C684.673 209.4 686.473 210.12 688.713 210.12C689.993 210.12 691.019 210.067 691.793 209.96C692.593 209.827 693.193 209.693 693.593 209.56V195.08ZM701.833 201.64C701.833 199.827 702.086 198.253 702.593 196.92C703.126 195.56 703.806 194.427 704.633 193.52C705.486 192.613 706.446 191.947 707.513 191.52C708.606 191.067 709.726 190.84 710.873 190.84C713.406 190.84 715.419 191.667 716.913 193.32C718.433 194.973 719.193 197.52 719.193 200.96C719.193 201.173 719.179 201.387 719.153 201.6C719.153 201.813 719.139 202.013 719.113 202.2H704.593C704.673 204.733 705.299 206.68 706.473 208.04C707.646 209.4 709.513 210.08 712.073 210.08C713.486 210.08 714.606 209.947 715.433 209.68C716.259 209.413 716.859 209.187 717.233 209L717.713 211.24C717.339 211.453 716.633 211.707 715.593 212C714.579 212.293 713.379 212.44 711.993 212.44C710.179 212.44 708.633 212.173 707.353 211.64C706.073 211.107 705.019 210.36 704.193 209.4C703.366 208.44 702.766 207.307 702.393 206C702.019 204.667 701.833 203.213 701.833 201.64ZM716.513 200C716.459 197.84 715.953 196.16 714.993 194.96C714.033 193.76 712.673 193.16 710.913 193.16C709.979 193.16 709.139 193.347 708.393 193.72C707.673 194.093 707.033 194.6 706.473 195.24C705.939 195.853 705.513 196.573 705.193 197.4C704.899 198.227 704.726 199.093 704.673 200H716.513ZM733.547 212.44C731.947 212.44 730.534 212.187 729.307 211.68C728.08 211.173 727.054 210.453 726.227 209.52C725.427 208.56 724.814 207.427 724.387 206.12C723.96 204.787 723.747 203.32 723.747 201.72C723.747 200.093 723.96 198.613 724.387 197.28C724.84 195.947 725.48 194.8 726.307 193.84C727.134 192.88 728.134 192.147 729.307 191.64C730.48 191.107 731.8 190.84 733.267 190.84C734.387 190.84 735.427 190.933 736.387 191.12C737.374 191.307 738.134 191.547 738.667 191.84L737.987 194.08C737.454 193.813 736.854 193.6 736.187 193.44C735.52 193.28 734.627 193.2 733.507 193.2C731.214 193.2 729.467 193.947 728.267 195.44C727.094 196.907 726.507 199 726.507 201.72C726.507 202.947 726.64 204.08 726.907 205.12C727.174 206.133 727.6 207.013 728.187 207.76C728.8 208.48 729.574 209.053 730.507 209.48C731.467 209.88 732.627 210.08 733.987 210.08C735.107 210.08 736.04 209.96 736.787 209.72C737.56 209.453 738.12 209.227 738.467 209.04L739.027 211.28C738.547 211.547 737.787 211.8 736.747 212.04C735.734 212.307 734.667 212.44 733.547 212.44ZM748.625 212.36C747.745 212.333 746.972 212.213 746.305 212C745.665 211.813 745.119 211.52 744.665 211.12C744.239 210.693 743.905 210.16 743.665 209.52C743.452 208.853 743.345 208.027 743.345 207.04V181.44L745.945 180.96V206.96C745.945 207.6 745.999 208.12 746.105 208.52C746.239 208.893 746.425 209.2 746.665 209.44C746.905 209.653 747.212 209.813 747.585 209.92C747.985 210.027 748.452 210.12 748.985 210.2L748.625 212.36ZM760.101 210.12C761.114 210.12 761.994 210.093 762.741 210.04C763.514 209.96 764.167 209.867 764.701 209.76V202.48C764.407 202.347 763.941 202.213 763.301 202.08C762.661 201.92 761.781 201.84 760.661 201.84C760.021 201.84 759.354 201.893 758.661 202C757.967 202.08 757.327 202.28 756.741 202.6C756.154 202.893 755.674 203.307 755.301 203.84C754.927 204.373 754.741 205.08 754.741 205.96C754.741 206.733 754.861 207.387 755.101 207.92C755.367 208.453 755.727 208.88 756.181 209.2C756.661 209.52 757.221 209.76 757.861 209.92C758.527 210.053 759.274 210.12 760.101 210.12ZM759.861 190.84C761.221 190.84 762.367 191.04 763.301 191.44C764.261 191.813 765.034 192.347 765.621 193.04C766.207 193.707 766.634 194.507 766.901 195.44C767.167 196.373 767.301 197.387 767.301 198.48V211.52C767.034 211.6 766.647 211.693 766.141 211.8C765.634 211.88 765.047 211.973 764.381 212.08C763.714 212.187 762.967 212.267 762.141 212.32C761.341 212.4 760.514 212.44 759.661 212.44C758.567 212.44 757.554 212.32 756.621 212.08C755.714 211.84 754.914 211.467 754.221 210.96C753.554 210.427 753.021 209.76 752.621 208.96C752.247 208.133 752.061 207.133 752.061 205.96C752.061 204.84 752.274 203.88 752.701 203.08C753.127 202.28 753.727 201.627 754.501 201.12C755.274 200.587 756.194 200.2 757.261 199.96C758.327 199.72 759.487 199.6 760.741 199.6C761.114 199.6 761.501 199.627 761.901 199.68C762.327 199.707 762.727 199.76 763.101 199.84C763.501 199.893 763.834 199.96 764.101 200.04C764.394 200.093 764.594 200.147 764.701 200.2V198.92C764.701 198.2 764.647 197.507 764.541 196.84C764.434 196.147 764.194 195.533 763.821 195C763.474 194.44 762.967 194 762.301 193.68C761.661 193.333 760.807 193.16 759.741 193.16C758.221 193.16 757.087 193.267 756.341 193.48C755.594 193.693 755.047 193.867 754.701 194L754.341 191.72C754.794 191.507 755.487 191.307 756.421 191.12C757.381 190.933 758.527 190.84 759.861 190.84ZM780.972 190.92C781.826 190.92 782.626 190.987 783.372 191.12C784.146 191.253 784.679 191.387 784.972 191.52L784.452 193.76C784.239 193.653 783.799 193.547 783.132 193.44C782.492 193.307 781.639 193.24 780.572 193.24C779.452 193.24 778.546 193.32 777.852 193.48C777.186 193.64 776.746 193.773 776.532 193.88V212H773.932V192.28C774.599 191.987 775.519 191.693 776.692 191.4C777.866 191.08 779.292 190.92 780.972 190.92ZM787.653 201.64C787.653 199.827 787.906 198.253 788.413 196.92C788.946 195.56 789.626 194.427 790.453 193.52C791.306 192.613 792.266 191.947 793.333 191.52C794.426 191.067 795.546 190.84 796.693 190.84C799.226 190.84 801.24 191.667 802.733 193.32C804.253 194.973 805.013 197.52 805.013 200.96C805.013 201.173 805 201.387 804.973 201.6C804.973 201.813 804.96 202.013 804.933 202.2H790.413C790.493 204.733 791.12 206.68 792.293 208.04C793.466 209.4 795.333 210.08 797.893 210.08C799.306 210.08 800.426 209.947 801.253 209.68C802.08 209.413 802.68 209.187 803.053 209L803.533 211.24C803.16 211.453 802.453 211.707 801.413 212C800.4 212.293 799.2 212.44 797.813 212.44C796 212.44 794.453 212.173 793.173 211.64C791.893 211.107 790.84 210.36 790.013 209.4C789.186 208.44 788.586 207.307 788.213 206C787.84 204.667 787.653 203.213 787.653 201.64ZM802.333 200C802.28 197.84 801.773 196.16 800.813 194.96C799.853 193.76 798.493 193.16 796.733 193.16C795.8 193.16 794.96 193.347 794.213 193.72C793.493 194.093 792.853 194.6 792.293 195.24C791.76 195.853 791.333 196.573 791.013 197.4C790.72 198.227 790.546 199.093 790.493 200H802.333ZM827.247 211.36C826.474 211.627 825.487 211.88 824.287 212.12C823.087 212.36 821.567 212.48 819.727 212.48C818.207 212.48 816.821 212.24 815.567 211.76C814.341 211.253 813.274 210.533 812.367 209.6C811.487 208.667 810.794 207.533 810.287 206.2C809.807 204.867 809.567 203.36 809.567 201.68C809.567 200.107 809.767 198.667 810.167 197.36C810.594 196.027 811.207 194.88 812.007 193.92C812.807 192.96 813.781 192.213 814.927 191.68C816.101 191.147 817.434 190.88 818.927 190.88C820.287 190.88 821.461 191.08 822.447 191.48C823.461 191.853 824.194 192.213 824.647 192.56V181.44L827.247 180.96V211.36ZM824.647 195.08C824.407 194.893 824.101 194.693 823.727 194.48C823.381 194.267 822.967 194.067 822.487 193.88C822.007 193.693 821.487 193.547 820.927 193.44C820.367 193.307 819.781 193.24 819.167 193.24C817.887 193.24 816.807 193.467 815.927 193.92C815.074 194.373 814.381 194.987 813.847 195.76C813.314 196.507 812.927 197.4 812.687 198.44C812.447 199.453 812.327 200.533 812.327 201.68C812.327 204.4 813.007 206.493 814.367 207.96C815.727 209.4 817.527 210.12 819.767 210.12C821.047 210.12 822.074 210.067 822.847 209.96C823.647 209.827 824.247 209.693 824.647 209.56V195.08Z" fill="white"/>
<path d="M709.69 395.12C710.704 395.12 711.584 395.093 712.33 395.04C713.104 394.96 713.757 394.867 714.29 394.76V387.48C713.997 387.347 713.53 387.213 712.89 387.08C712.25 386.92 711.37 386.84 710.25 386.84C709.61 386.84 708.944 386.893 708.25 387C707.557 387.08 706.917 387.28 706.33 387.6C705.744 387.893 705.264 388.307 704.89 388.84C704.517 389.373 704.33 390.08 704.33 390.96C704.33 391.733 704.45 392.387 704.69 392.92C704.957 393.453 705.317 393.88 705.77 394.2C706.25 394.52 706.81 394.76 707.45 394.92C708.117 395.053 708.864 395.12 709.69 395.12ZM709.45 375.84C710.81 375.84 711.957 376.04 712.89 376.44C713.85 376.813 714.624 377.347 715.21 378.04C715.797 378.707 716.224 379.507 716.49 380.44C716.757 381.373 716.89 382.387 716.89 383.48V396.52C716.624 396.6 716.237 396.693 715.73 396.8C715.224 396.88 714.637 396.973 713.97 397.08C713.304 397.187 712.557 397.267 711.73 397.32C710.93 397.4 710.104 397.44 709.25 397.44C708.157 397.44 707.144 397.32 706.21 397.08C705.304 396.84 704.504 396.467 703.81 395.96C703.144 395.427 702.61 394.76 702.21 393.96C701.837 393.133 701.65 392.133 701.65 390.96C701.65 389.84 701.864 388.88 702.29 388.08C702.717 387.28 703.317 386.627 704.09 386.12C704.864 385.587 705.784 385.2 706.85 384.96C707.917 384.72 709.077 384.6 710.33 384.6C710.704 384.6 711.09 384.627 711.49 384.68C711.917 384.707 712.317 384.76 712.69 384.84C713.09 384.893 713.424 384.96 713.69 385.04C713.984 385.093 714.184 385.147 714.29 385.2V383.92C714.29 383.2 714.237 382.507 714.13 381.84C714.024 381.147 713.784 380.533 713.41 380C713.064 379.44 712.557 379 711.89 378.68C711.25 378.333 710.397 378.16 709.33 378.16C707.81 378.16 706.677 378.267 705.93 378.48C705.184 378.693 704.637 378.867 704.29 379L703.93 376.72C704.384 376.507 705.077 376.307 706.01 376.12C706.97 375.933 708.117 375.84 709.45 375.84ZM732.082 397.44C730.482 397.44 729.069 397.187 727.842 396.68C726.615 396.173 725.589 395.453 724.762 394.52C723.962 393.56 723.349 392.427 722.922 391.12C722.495 389.787 722.282 388.32 722.282 386.72C722.282 385.093 722.495 383.613 722.922 382.28C723.375 380.947 724.015 379.8 724.842 378.84C725.669 377.88 726.669 377.147 727.842 376.64C729.015 376.107 730.335 375.84 731.802 375.84C732.922 375.84 733.962 375.933 734.922 376.12C735.909 376.307 736.669 376.547 737.202 376.84L736.522 379.08C735.989 378.813 735.389 378.6 734.722 378.44C734.055 378.28 733.162 378.2 732.042 378.2C729.749 378.2 728.002 378.947 726.802 380.44C725.629 381.907 725.042 384 725.042 386.72C725.042 387.947 725.175 389.08 725.442 390.12C725.709 391.133 726.135 392.013 726.722 392.76C727.335 393.48 728.109 394.053 729.042 394.48C730.002 394.88 731.162 395.08 732.522 395.08C733.642 395.08 734.575 394.96 735.322 394.72C736.095 394.453 736.655 394.227 737.002 394.04L737.562 396.28C737.082 396.547 736.322 396.8 735.282 397.04C734.269 397.307 733.202 397.44 732.082 397.44ZM744.36 376.32H752.6V378.52H744.36V389.52C744.36 390.693 744.454 391.653 744.64 392.4C744.854 393.12 745.147 393.68 745.52 394.08C745.894 394.48 746.347 394.747 746.88 394.88C747.414 395.013 748 395.08 748.64 395.08C749.734 395.08 750.614 394.96 751.28 394.72C751.947 394.453 752.467 394.213 752.84 394L753.48 396.16C753.107 396.4 752.454 396.68 751.52 397C750.587 397.293 749.574 397.44 748.48 397.44C747.2 397.44 746.12 397.28 745.24 396.96C744.387 396.613 743.694 396.107 743.16 395.44C742.654 394.747 742.294 393.893 742.08 392.88C741.867 391.867 741.76 390.667 741.76 389.28V370.24L744.36 369.76V376.32ZM773.269 396.28C772.496 396.493 771.456 396.733 770.149 397C768.843 397.267 767.243 397.4 765.349 397.4C763.803 397.4 762.509 397.173 761.469 396.72C760.429 396.267 759.589 395.627 758.949 394.8C758.309 393.973 757.843 392.973 757.549 391.8C757.283 390.627 757.149 389.333 757.149 387.92V376.32H759.749V387.08C759.749 388.547 759.856 389.787 760.069 390.8C760.283 391.813 760.629 392.64 761.109 393.28C761.589 393.893 762.203 394.347 762.949 394.64C763.723 394.907 764.656 395.04 765.749 395.04C766.976 395.04 768.043 394.973 768.949 394.84C769.856 394.707 770.429 394.587 770.669 394.48V376.32H773.269V396.28ZM786.683 395.12C787.696 395.12 788.576 395.093 789.323 395.04C790.096 394.96 790.749 394.867 791.283 394.76V387.48C790.989 387.347 790.523 387.213 789.883 387.08C789.243 386.92 788.363 386.84 787.243 386.84C786.603 386.84 785.936 386.893 785.243 387C784.549 387.08 783.909 387.28 783.323 387.6C782.736 387.893 782.256 388.307 781.883 388.84C781.509 389.373 781.323 390.08 781.323 390.96C781.323 391.733 781.443 392.387 781.683 392.92C781.949 393.453 782.309 393.88 782.763 394.2C783.243 394.52 783.803 394.76 784.443 394.92C785.109 395.053 785.856 395.12 786.683 395.12ZM786.443 375.84C787.803 375.84 788.949 376.04 789.883 376.44C790.843 376.813 791.616 377.347 792.203 378.04C792.789 378.707 793.216 379.507 793.483 380.44C793.749 381.373 793.883 382.387 793.883 383.48V396.52C793.616 396.6 793.229 396.693 792.723 396.8C792.216 396.88 791.629 396.973 790.963 397.08C790.296 397.187 789.549 397.267 788.723 397.32C787.923 397.4 787.096 397.44 786.243 397.44C785.149 397.44 784.136 397.32 783.203 397.08C782.296 396.84 781.496 396.467 780.803 395.96C780.136 395.427 779.603 394.76 779.203 393.96C778.829 393.133 778.643 392.133 778.643 390.96C778.643 389.84 778.856 388.88 779.283 388.08C779.709 387.28 780.309 386.627 781.083 386.12C781.856 385.587 782.776 385.2 783.843 384.96C784.909 384.72 786.069 384.6 787.323 384.6C787.696 384.6 788.083 384.627 788.483 384.68C788.909 384.707 789.309 384.76 789.683 384.84C790.083 384.893 790.416 384.96 790.683 385.04C790.976 385.093 791.176 385.147 791.283 385.2V383.92C791.283 383.2 791.229 382.507 791.123 381.84C791.016 381.147 790.776 380.533 790.403 380C790.056 379.44 789.549 379 788.883 378.68C788.243 378.333 787.389 378.16 786.323 378.16C784.803 378.16 783.669 378.267 782.923 378.48C782.176 378.693 781.629 378.867 781.283 379L780.923 376.72C781.376 376.507 782.069 376.307 783.003 376.12C783.963 375.933 785.109 375.84 786.443 375.84ZM805.754 397.36C804.874 397.333 804.101 397.213 803.434 397C802.794 396.813 802.248 396.52 801.794 396.12C801.368 395.693 801.034 395.16 800.794 394.52C800.581 393.853 800.474 393.027 800.474 392.04V366.44L803.074 365.96V391.96C803.074 392.6 803.128 393.12 803.234 393.52C803.368 393.893 803.554 394.2 803.794 394.44C804.034 394.653 804.341 394.813 804.714 394.92C805.114 395.027 805.581 395.12 806.114 395.2L805.754 397.36Z" fill="#E95420"/>
<path d="M212.804 536.439C213.275 534.607 213.907 531.165 215.294 529.778C216.465 528.607 217.904 530.85 218.55 531.46C219.5 532.357 222.041 526.678 222.338 526.118C222.601 525.621 223.158 523.275 224.104 524.011C224.474 524.299 225.103 524.905 225.615 524.905C227.482 524.905 231.469 513.462 232.936 514.775C234.326 516.019 234.362 517.161 235.596 514.966C235.95 514.337 236.316 512.891 237.129 512.71C237.686 512.586 237.799 513.317 238.299 512.817C239.292 511.824 239.744 510.533 241.151 510.008C242.646 509.449 244.121 509.757 244.981 508.39C245.979 506.806 246.567 505.615 247.493 507.731C247.728 508.269 247.904 508.936 248.344 509.327C248.661 509.609 249.127 509.101 249.578 509.327C250.594 509.835 251.922 512.902 252.941 512.902C253.286 512.902 253.361 512.072 253.984 512.349C254.586 512.616 254.97 513.584 255.516 514.009C255.746 514.188 257.229 515.722 257.431 515.52C258.301 514.65 257.687 513.704 259.155 514.519C260.107 515.048 261.389 514.053 261.751 514.307C263.321 515.405 263.282 514.357 263.943 512.902C264.375 511.952 265.176 512.909 265.752 513.37C267.052 514.41 270.298 510.061 270.817 509.305C271.763 507.931 272.639 512.072 272.945 511.689C273.602 510.869 273.37 506.905 275.159 508.561C275.481 508.859 276.58 510.265 277.074 510.221C278.256 510.113 279.043 506.322 279.245 505.624C280.057 502.815 281.113 499.92 281.33 496.983C281.621 493.058 280.603 489.243 280.245 485.364C279.861 481.206 279.804 476.647 280.415 472.488C280.696 470.582 280.855 468.616 281.458 466.806C282.075 464.956 281.942 460.984 283.969 464.21C284.93 465.738 285.959 467.474 286.693 469.126C287.252 470.383 286.736 466.373 286.736 464.997C286.736 463.007 285.769 450.826 286.523 450.611C287.041 450.463 287.36 447.34 287.587 446.801C288.285 445.144 287.432 445.558 288.268 446.886C289.43 448.731 289.386 450.838 289.801 452.909C290.402 455.916 291.101 458.953 291.907 461.911C294.435 471.178 295.849 480.735 298.781 489.875C299.731 492.836 301.233 495.737 301.697 498.75C301.861 499.817 302.473 500.754 302.74 501.793C302.846 502.208 302.644 503.078 302.91 503.41C303.191 503.762 303.245 504.401 303.591 503.708C304.747 501.396 305.57 498.87 306.656 496.515C307.452 494.787 309.562 488.227 311.444 492.408C311.55 492.645 312.099 494.925 312.316 494.898C312.575 494.865 312.402 490.603 312.402 490.258C312.402 486.142 313.876 492.932 314.892 490.088C315.581 488.157 316.891 491.676 317.977 490.28C318.7 489.35 318.631 488.084 318.999 486.938C320.309 482.862 320.93 478.728 321.297 474.467C321.573 471.264 321.985 467.061 322.936 464.018C323.853 461.084 324.433 457.879 324.958 454.846C324.986 454.684 325.615 451.025 326.043 451.739C327.175 453.626 327.508 456.205 328.107 458.293C329.077 461.672 329.966 464.712 330.023 468.253C330.088 472.364 330.846 476.241 331.64 480.213C332.003 482.03 333.058 483.542 333.449 485.3C334.024 487.887 334.236 484.679 334.236 483.576C334.236 482.765 333.9 475.246 334.705 475.319C337.266 475.552 338.449 481.31 339.131 483.108C340.108 485.682 340.432 479.218 340.749 478.426C340.879 478.099 341.091 476.148 341.728 476.553C342.768 477.215 343.676 478.719 344.367 479.724C344.857 480.438 345.465 481.082 346.112 481.661C346.879 482.347 347.384 480.589 347.729 480.128C348.71 478.82 349.842 477.774 350.623 476.298C351.28 475.057 351.582 475.018 352.241 476.298C352.389 476.586 353.161 478.604 353.56 478.49C354.061 478.347 354.226 475.47 354.369 474.999C354.449 474.737 355.21 472.913 355.305 473.127C355.773 474.178 356.058 475.379 356.454 476.468C356.84 477.528 357.092 475.412 357.135 475.148C357.417 473.459 357.777 471.889 358.285 470.254C358.984 467.999 360.519 473.866 361.051 474.68C361.472 475.324 362.815 470.794 363.52 470.19C364.179 469.625 365.281 473.462 365.733 473.914C365.787 473.967 366.801 467.6 367.01 466.912C367.888 464.029 367.913 460.803 368.33 457.783C368.627 455.626 369.46 457.839 369.862 458.762C370.532 460.298 371.011 461.826 371.862 463.273C372.21 463.865 372.487 460.806 372.543 460.507C372.964 458.289 373.252 455.407 374.288 453.399C374.551 452.89 374.24 450.239 375.438 450.675C376.444 451.041 377.266 452.772 377.672 453.675C377.896 454.172 378.156 455.808 378.311 454.42C378.436 453.295 379.054 451.913 379.524 450.887C379.619 450.679 381.038 453.58 381.269 453.995C381.458 454.335 381.793 456.093 382.141 455.165C382.686 453.712 383.386 452.218 384.184 450.887C384.926 449.652 386.124 453.24 387.185 453.143C388.656 453.01 387.679 447.103 389.781 448.632C390.198 448.935 391.076 450.09 391.505 450.185C392.203 450.34 393.05 447.925 393.25 447.525C393.46 447.106 395.123 443.34 395.762 444.077C396.204 444.588 398.852 449.423 398.996 449.206C399.491 448.465 402.292 441.621 402.721 441.907C402.976 442.077 405.169 435.788 405.487 435.011C405.97 433.832 408.091 424.729 408.807 424.754C410.44 424.81 412.251 425.931 413.872 426.286C414.36 426.393 415.872 426.264 416.213 426.69C417.67 428.511 418.251 424.545 418.49 423.626C418.883 422.119 418.179 418.796 420.427 419.987C421.272 420.434 421.583 421.133 422.044 421.902C423.365 424.103 425.034 426.259 426.471 428.414C426.673 428.717 428.881 432.786 429.195 432.394C429.622 431.86 429.356 430.373 429.791 429.627C430.257 428.827 431.459 431.666 431.578 431.904C432.987 434.722 434.003 437.632 435.196 440.545C436.534 443.808 437.657 447.162 439.112 450.377C439.752 451.79 440.203 452.293 439.878 450.547C439.646 449.298 439.149 448.276 438.729 447.099C438.34 446.011 438.338 446.402 438.729 447.184C439.452 448.63 443.703 442.266 444.156 441.694C445.718 439.718 446.407 439.681 448.008 441.46C448.218 441.694 449.907 444.139 450.115 444.056C450.738 443.807 451.745 437.062 452.605 437.778C454.173 439.085 454.123 440.767 454.903 437.821C455.127 436.975 455.559 434.713 456.648 434.415C457.608 434.154 459.611 438.251 460.053 438.906C460.638 439.771 461.632 440.434 462.16 441.226C462.592 441.874 462.428 439.69 462.586 438.927C462.646 438.634 463.44 435.797 464.012 436.161C464.815 436.672 464.963 437.853 465.714 438.374C467.37 439.52 467.3 434.684 468.119 436.139C468.568 436.937 468.766 437.934 469.46 438.587C469.73 438.841 469.585 438.296 468.694 438.672C468.044 438.945 467.36 438.59 466.778 439.14C466.131 439.751 466.546 439.899 467.161 439.608C469.103 438.688 470.798 437.608 472.907 437.608C475.608 437.608 476.538 434.39 477.802 432.33C479.045 430.304 480.292 433.841 481.505 432.628C481.983 432.15 482.474 431.271 483.059 430.947C483.445 430.732 484.083 431.479 484.591 431.479C485.361 431.479 485.168 430.83 485.336 430.202C486.781 424.783 488.729 419.649 489.847 414.113C493.688 395.098 492.745 374.84 490.55 355.631C490.008 350.888 489.379 346.022 489.379 341.245C489.379 339.565 489.387 336.844 490.06 335.328C490.526 334.28 490.181 331.551 490.997 330.817C492.226 329.71 494.963 334.689 495.125 335.541C495.5 337.51 496.54 339.039 497.126 340.904C497.564 342.297 501.58 336.445 501.999 335.733C503.761 332.738 505.019 329.832 506.532 326.688C507.445 324.792 507.879 324.276 509.214 326.433C512.41 331.596 512.05 338.12 513.811 343.841C514.451 345.923 514.134 348.092 515.236 350.077C515.952 351.364 515.811 354.143 515.811 355.631C515.811 359.04 516.577 362.616 516.577 366.165C516.577 368.755 516.577 371.344 516.577 373.933C516.577 374.64 517.208 372.025 517.428 371.805C518.383 370.851 520.377 380.589 520.408 381.382C520.524 384.409 521.557 387.47 521.557 390.533C521.557 394.342 521.54 398.63 522.621 402.28C522.988 403.518 522.939 405.31 523.068 406.6C523.283 408.747 523.855 410.989 523.855 413.113C523.855 414.926 524.239 416.626 524.239 418.454C524.239 419.061 524.423 420.995 524.834 420.114C525.229 419.269 527.477 412.774 528.154 413.857C530.037 416.87 530.842 412.495 531.219 411.091C531.356 410.58 531.994 406.743 532.836 406.984C533.595 407.2 534.616 408.717 535.135 409.261C536.952 411.165 537.732 414.064 539.519 416.049C541.279 418.006 542.221 410.41 542.243 409.559C542.277 408.194 542.26 406.67 543.094 405.558C543.883 404.506 543.607 402.076 543.988 400.791C544.27 399.837 543.95 393.64 544.371 393.64C545.877 393.64 545.918 399.316 546.754 400.152C547.645 401.043 546.819 397.454 547.606 396.47C547.67 396.391 550.956 402.963 551.67 404.153C552.904 406.209 553.89 408.36 554.884 410.538C555.421 411.713 555.751 413.117 556.884 412.027C557.589 411.35 557.898 410.975 558.417 410.197C558.752 409.695 559.57 411.897 559.949 410.538C561.114 406.364 562.478 402.206 563.673 398.024C563.719 397.864 564.023 398.875 564.269 398.875C564.695 398.875 565.251 395.777 565.418 395.385C565.859 394.357 568.674 398.724 568.674 398.535C568.674 396.924 568.649 389.392 571.058 392.576C572.55 394.547 573.111 397.241 574.25 393.512C574.469 392.796 576.429 383.297 577.336 383.297C578.706 383.297 581.656 390.354 582.167 388.107C582.508 386.607 582.839 384.976 583.529 383.595C584.025 382.602 584.408 384.679 584.551 385C585.706 387.601 586.817 390.385 588.19 392.874C588.498 393.433 588.803 394.45 588.998 393.768C589.087 393.458 591.674 396.802 591.701 396.768C592.345 395.964 593.141 395.137 593.872 394.406C594.69 393.588 594.79 394.388 595.404 395.002C597.182 396.78 598.02 388.963 599.916 389.469C601.228 389.819 601.943 392.212 603.066 393.002C603.627 393.397 604.411 390.837 604.598 390.405C605.152 389.127 605.328 387.971 606.385 389.511C606.626 389.862 608.854 392.878 608.897 392.32C609.052 390.301 609.663 387.937 609.663 386.042C609.663 383.374 611.128 388.342 611.791 385.596C613.736 377.536 613.56 369.26 615.622 361.249C616.314 358.559 616.922 355.712 617.239 352.95C617.469 350.949 617.713 349.312 618.942 352.056C621.93 358.728 623.098 366.139 625.539 373.018C625.689 373.441 627.767 378.778 627.965 378.53C628.569 377.775 628.612 374.669 628.816 373.72C629.022 372.766 631.179 364.841 631.2 364.867C633.332 367.533 634.268 371.153 636.031 374.061C637.335 376.213 636.884 372.531 637.095 371.571C637.528 369.598 639.598 368.338 639.925 370.954C640.065 372.068 641.666 372.934 642.309 373.933C642.742 374.608 643.57 375.265 643.756 374.103C644.328 370.527 644.952 367.022 645.842 363.505C646.025 362.782 647.029 355.444 647.757 355.652C648.623 355.9 649.569 358.4 649.864 359.1C651.377 362.695 652.898 365.989 654.61 369.549C655.144 370.661 655.641 371.752 656.355 372.763C656.364 372.777 657.139 373.924 657.185 373.763C657.713 371.914 658.044 369.978 658.483 368.102C659.125 365.359 658.988 362.634 659.164 359.845C659.433 355.577 659.82 351.313 659.845 347.033C659.862 343.994 659.462 340.962 659.462 338.01C659.462 333.884 659.322 329.738 659.653 325.624C659.902 322.546 659.708 318.961 660.994 316.069C661.22 315.559 662.837 318.339 662.931 318.537C666.773 326.702 668.957 335.557 671.805 344.054C672.627 346.505 673.361 348.93 674.04 351.417C674.379 352.662 675.551 353.731 675.551 355.056C675.551 358.835 675.168 352.012 675.168 351.119C675.168 350.68 674.837 348.332 675.423 349.459C676.28 351.107 677.047 352.844 678.062 354.397C678.498 355.064 678.084 353.562 678.53 353.205C678.645 353.113 679.954 355.03 680.147 355.248C680.962 356.164 677.668 355.333 678.785 355.652C679.421 355.834 681.832 357.538 682.233 356.908C682.764 356.074 683.498 350.879 684.744 351.502C686.505 352.383 685.38 352.958 685.596 352.95C687.493 352.874 688.948 353.129 690.661 353.907C692.493 354.74 693.381 355.382 694.406 353.333C695.398 351.349 695.832 349.45 696.428 347.331C697.002 345.291 698.945 348.261 699.684 348.885C700.267 349.377 702.094 351.127 702.961 350.417C703.534 349.948 704.464 348.395 705.26 348.395C707.502 348.395 707.216 349.873 709.176 347.587C710.957 345.508 711.96 347.179 714.155 347.885C715.618 348.355 716.155 346.024 718.093 346.629C721.017 347.543 721.137 344.182 723.626 344.182C725.198 344.182 726.577 345.723 728.031 344.352C729.189 343.26 730.269 341.883 731.5 340.883C731.827 340.617 732.935 339.299 733.394 339.712C734.15 340.393 735.051 342.119 736.288 342.053C738.063 341.96 738.737 333.376 738.757 333.158C739.384 326.389 739.589 319.682 739.14 312.898C738.66 305.646 739.239 298.576 739.523 291.339C739.745 285.683 739.906 280.059 739.906 274.399C739.906 268.953 738.56 263.653 738.374 258.246C738.216 253.67 737.548 249.293 737.608 244.669C737.659 240.673 738.757 236.863 738.757 232.858C738.757 232.214 738.416 230.219 738.842 229.687C739.037 229.444 739.14 228.842 739.14 229.218C739.14 230.036 739.5 230.718 739.523 231.517C739.574 233.285 739.349 235.122 739.544 236.88C739.771 238.92 740.672 240.964 740.672 243.009C740.672 245.165 741.62 247.528 742.205 249.606C743.155 252.985 744.421 256.045 745.184 259.481C745.648 261.568 745.863 263.866 746.057 265.993C746.323 268.929 747.372 271.682 747.589 274.612C748.752 290.317 751.776 305.757 755.08 321.176C755.66 323.885 756.242 327.375 757.229 329.965C757.742 331.31 757.708 333.096 758.506 334.349C758.801 334.813 759.043 335.492 759.06 334.69C759.125 331.623 759.464 328.304 760.209 325.326C760.807 322.933 762.975 326.336 764.039 326.986C764.642 327.354 766.012 329.795 766.721 328.199C767.33 326.829 767.579 325.401 767.87 323.943C768.048 323.054 768.794 323.962 769.211 324.241C769.936 324.724 770.543 325.962 771.616 325.667C772.859 325.324 773.205 323.371 773.616 322.389C774.121 321.183 774.434 321.642 775.234 322.134C775.829 322.5 776.558 322.108 777.149 322.474C779.918 324.193 781.42 326.531 783.895 323.283C784.393 322.63 784.318 319.003 785.023 319.708C785.903 320.588 785.035 317.2 785.3 315.983C785.552 314.822 785.304 313.897 786.3 315.281C787.099 316.391 788.556 317.928 788.556 319.388C788.556 320.177 788.934 317.852 789.024 317.069C789.072 316.655 789.274 312.113 790.088 312.429C790.457 312.573 791.203 314.163 791.237 312.94C791.267 311.881 790.935 310.478 791.535 309.578C791.904 309.024 792.217 300.851 793.025 301.512C795.22 303.308 796.271 305.635 798.111 307.705C798.916 308.61 802.374 313.562 802.431 313.408C803.229 311.282 803.862 314.449 804.432 315.537C805.174 316.953 804.541 313.651 806.177 315.196C807.219 316.18 808.548 320.371 810.008 320.602C810.615 320.697 811.632 316.303 811.923 315.43C812.15 314.749 813.986 317.131 814.456 317.601C816.516 319.662 817.179 322.42 818.435 318.388C818.966 316.683 819.034 316.349 820.265 317.324C821.229 318.087 820.498 317.494 821.5 317.494C822.518 317.494 822.877 319.577 823.628 320.006C824.676 320.605 824.839 319.963 825.905 319.963C826.244 319.963 826.724 317.715 826.863 317.409C827.568 315.849 828.27 317.935 828.778 318.473C828.903 318.606 829.654 315.359 830.012 314.643C830.245 314.177 830.32 313.814 830.864 314.047C830.951 314.084 831.625 312.867 832.034 312.685C833.444 312.058 833.754 308.739 833.971 307.471C834.087 306.789 834.648 302.766 836.056 303.236C837.132 303.594 838.57 305.58 839.249 306.428C840.425 307.899 841.622 303.939 842.185 305.066" stroke="#E95420" stroke-width="3" stroke-linecap="round"/>
</g>
<defs>
<clipPath id="clip0_5022_3249">
<rect width="1059" height="755" fill="white"/>
</clipPath>
</defs>
</svg>
