<svg width="253" height="400" viewBox="0 0 253 400" fill="none" xmlns="http://www.w3.org/2000/svg">
<path d="M252.43 0H0V400H252.43V0Z" fill="#E95420"/>
<path d="M57.7198 280.4C72.151 280.4 83.8498 268.701 83.8498 254.27C83.8498 239.838 72.151 228.14 57.7198 228.14C43.2886 228.14 31.5898 239.838 31.5898 254.27C31.5898 268.701 43.2886 280.4 57.7198 280.4Z" fill="white"/>
<path d="M166.56 223.1C180.991 223.1 192.69 211.401 192.69 196.97C192.69 182.539 180.991 170.84 166.56 170.84C152.128 170.84 140.43 182.539 140.43 196.97C140.43 211.401 152.128 223.1 166.56 223.1Z" fill="white"/>
<path d="M116.66 321.53C97.8399 317.5 82.0999 305.47 73.2599 288.43C66.2899 291.6 58.4599 292.57 50.9199 291.18C61.6199 317.46 84.3199 336.55 112.17 342.52C118.28 343.83 124.52 344.47 130.73 344.43C125.93 338.12 123.26 330.51 123.08 322.58C120.93 322.34 118.78 321.99 116.67 321.54L116.66 321.53Z" fill="white"/>
<path d="M160.67 347.81C175.101 347.81 186.8 336.111 186.8 321.68C186.8 307.249 175.101 295.55 160.67 295.55C146.239 295.55 134.54 307.249 134.54 321.68C134.54 336.111 146.239 347.81 160.67 347.81Z" fill="white"/>
<path d="M197.03 312.08C205.16 301.84 210.88 289.73 213.64 276.85C218.45 254.41 213.96 230.86 201.32 211.76C198.31 218.85 193.2 224.85 186.62 228.97C193.67 242.26 195.82 257.6 192.66 272.36C191.11 279.58 188.38 286.39 184.53 292.61C190.68 297.65 195.02 304.44 197.04 312.08H197.03Z" fill="white"/>
<path d="M55.7002 216.8C56.3602 216.76 57.0302 216.75 57.6902 216.75C60.3302 216.75 62.9702 217.03 65.5802 217.59C69.8402 218.5 73.8502 220.12 77.5102 222.39C89.2802 205.47 108.26 195.31 128.83 194.94C128.94 192.97 129.2 190.99 129.62 189.06C130.82 183.46 133.27 178.23 136.76 173.75C103.9 171.15 71.9602 188.11 55.7002 216.8Z" fill="white"/>
</svg>
